HIERARCHY
ROOT Hips
{
	OFFSET 0.00000 0.00000 0.00000
	CHANNELS 6 Xposition Yposition Zposition Zrotation Yrotation Xrotation 
	JOINT LHipJoint
	{
		OFFSET 0 0 0
		CHANNELS 3 Zrotation Yrotation Xrotation
		JOINT LeftUpLeg
		{
			OFFSET 1.53139 -1.83434 0.76626
			CHANNELS 3 Zrotation Yrotation Xrotation
			JOINT LeftLeg
			{
				OFFSET 2.56112 -7.03663 0.00000
				CHANNELS 3 Zrotation Yrotation Xrotation
				JOINT LeftFoot
				{
					OFFSET 2.59983 -7.14299 0.00000
					CHANNELS 3 Zrotation Yrotation Xrotation
					JOINT LeftToeBase
					{
						OFFSET 0.13742 -0.37757 2.00054
						CHANNELS 3 Zrotation Yrotation Xrotation
						End Site
						{
							OFFSET 0.00000 -0.00000 1.02897
						}
					}
				}
			}
		}
	}
	JOINT RHipJoint
	{
		OFFSET 0 0 0
		CHANNELS 3 Zrotation Yrotation Xrotation
		JOINT RightUpLeg
		{
			OFFSET -1.40122 -1.83435 0.76627
			CHANNELS 3 Zrotation Yrotation Xrotation
			JOINT RightLeg
			{
				OFFSET -2.54052 -6.98003 0.00000
				CHANNELS 3 Zrotation Yrotation Xrotation
				JOINT RightFoot
				{
					OFFSET -2.63179 -7.23079 0.00000
					CHANNELS 3 Zrotation Yrotation Xrotation
					JOINT RightToeBase
					{
						OFFSET -0.24131 -0.66299 2.03908
						CHANNELS 3 Zrotation Yrotation Xrotation
						End Site
						{
							OFFSET -0.00000 -0.00000 1.07391
						}
					}
				}
			}
		}
	}
	JOINT LowerBack
	{
		OFFSET 0 0 0
		CHANNELS 3 Zrotation Yrotation Xrotation
		JOINT Spine
		{
			OFFSET 0.01174 2.10302 -0.29778
			CHANNELS 3 Zrotation Yrotation Xrotation
			JOINT Spine1
			{
				OFFSET 0.00772 2.13227 -0.01247
				CHANNELS 3 Zrotation Yrotation Xrotation
				JOINT Neck
				{
					OFFSET 0 0 0
					CHANNELS 3 Zrotation Yrotation Xrotation
					JOINT Neck1
					{
						OFFSET -0.09219 1.60848 0.31481
						CHANNELS 3 Zrotation Yrotation Xrotation
						JOINT Head
						{
							OFFSET 0.13974 1.65456 -0.31134
							CHANNELS 3 Zrotation Yrotation Xrotation
							End Site
							{
								OFFSET 0.04742 1.69515 -0.14578
							}
						}
					}
				}
				JOINT LeftShoulder
				{
					OFFSET 0 0 0
					CHANNELS 3 Zrotation Yrotation Xrotation
					JOINT LeftArm
					{
						OFFSET 3.24909 1.02882 -0.23993
						CHANNELS 3 Zrotation Yrotation Xrotation
						JOINT LeftForeArm
						{
							OFFSET 5.32955 -0.00000 -0.00000
							CHANNELS 3 Zrotation Yrotation Xrotation
							JOINT LeftHand
							{
								OFFSET 3.69232 -0.00000 -0.00000
								CHANNELS 3 Zrotation Yrotation Xrotation
								JOINT LeftFingerBase
								{
									OFFSET 0 0 0
									CHANNELS 3 Zrotation Yrotation Xrotation
									JOINT LeftHandIndex1
									{
										OFFSET 0.53660 -0.00000 -0.00000
										CHANNELS 3 Zrotation Yrotation Xrotation
										End Site
										{
											OFFSET 0.43262 -0.00000 -0.00000
										}
									}
								}
								JOINT LThumb
								{
									OFFSET 0 0 0
									CHANNELS 3 Zrotation Yrotation Xrotation
									End Site
									{
										OFFSET 0.43922 -0.00000 0.43922
									}
								}
							}
						}
					}
				}
				JOINT RightShoulder
				{
					OFFSET 0 0 0
					CHANNELS 3 Zrotation Yrotation Xrotation
					JOINT RightArm
					{
						OFFSET -3.21387 0.93002 -0.34594
						CHANNELS 3 Zrotation Yrotation Xrotation
						JOINT RightForeArm
						{
							OFFSET -5.23431 -0.00000 0.00000
							CHANNELS 3 Zrotation Yrotation Xrotation
							JOINT RightHand
							{
								OFFSET -3.55301 -0.00000 -0.00000
								CHANNELS 3 Zrotation Yrotation Xrotation
								JOINT RightFingerBase
								{
									OFFSET 0 0 0
									CHANNELS 3 Zrotation Yrotation Xrotation
									JOINT RightHandIndex1
									{
										OFFSET -0.77252 -0.00000 -0.00000
										CHANNELS 3 Zrotation Yrotation Xrotation
										End Site
										{
											OFFSET -0.62283 -0.00000 -0.00000
										}
									}
								}
								JOINT RThumb
								{
									OFFSET 0 0 0
									CHANNELS 3 Zrotation Yrotation Xrotation
									End Site
									{
										OFFSET -0.63234 -0.00000 0.63234
									}
								}
							}
						}
					}
				}
			}
		}
	}
}
MOTION
Frames: 8
Frame Time: .0083333
-12.6942 17.6381 -16.0845 0 0 0 0 0 0 -21 0 0 0 0 0 0 0 0 0 0 0 0 0 0 21 0 0 0 0 0 0 0 0 0 0 0 0 0 0 0 0 0 0 0 0 0 0 -16 0 0 21 0 0 11 0 0 0 -8 0 0 0 0 0 0 0 0 0 0 0 0 0 0 0 0 0 0 0 0 8 0 0 0 0 0 0 0 0 0 0 0 0 0 0 0 0 0
-12.6942 17.6381 -16.0845 -175.8250 87.7226 -177.9470 0.0000 0.0000 0.0000 -16.7708 -5.9580 -12.5322 4.3865 12.6577 38.1003 0.5475 -17.4518 -16.9461 2.4250 -9.7002 -28.0114 0.0000 0.0000 0.0000 19.1070 4.6065 -5.3942 -2.9588 -10.6281 31.0355 -1.0346 -1.8141 -19.9498 -0.0052 -0.4636 1.2739 -1.0997 1.0459 12.8250 0.3733 1.2973 0.6725 0.7763 0.6907 -6.5227 -13.6865 -9.4740 -16.7687 11.1400 -12.6253 29.8298 4.6190 -5.3662 14.8286 0.0000 -0.0000 0.0000 -85.6359 7.6655 17.6575 20.6841 -31.4577 -5.8842 -0.0000 -0.0000 1.0621 18.7350 25.6991 8.3669 -7.1250 0.0000 -0.0000 -12.0881 56.5078 -3.4456 0.0000 -0.0000 0.0000 86.9019 -3.4518 10.1111 -17.3378 27.3010 -4.2411 0.0000 0.0000 7.2021 -14.9816 6.5887 -1.7587 7.1250 -0.0000 -0.0000 8.6535 -23.1788 4.5999
-12.6855 17.6189 -16.0250 -179.4340 87.6479 -181.5370 0.0000 0.0000 0.0000 -17.7095 -5.2826 -12.6923 4.3793 12.6487 38.0674 0.0626 -20.4877 -14.9254 1.6321 -8.0536 -22.8769 0.0000 0.0000 0.0000 19.1886 4.6954 -5.5894 -3.0493 -10.7745 31.5231 -1.0578 -1.9013 -20.2018 -0.0115 -0.6910 1.8989 -1.1206 0.9835 12.7394 0.3334 1.2090 0.6625 0.7635 0.6473 -6.4828 -13.6336 -9.4755 -16.7635 10.9792 -12.5944 29.8859 4.5501 -5.3670 14.8281 -0.0000 -0.0000 0.0000 -85.5990 7.8842 17.9146 20.7385 -31.5218 -5.9126 -0.0000 -0.0000 1.1399 18.0950 25.2298 7.9291 -7.1250 0.0000 -0.0000 -12.5184 55.9082 -3.3881 -0.0000 -0.0000 0.0000 86.8450 -3.4859 9.9438 -17.3507 27.3178 -4.2470 0.0000 0.0000 6.8111 -15.1849 6.1925 -1.6770 7.1250 -0.0000 -0.0000 8.5219 -23.5775 4.4494
-12.6774 17.5968 -15.9640 -179.7880 87.5802 -181.9490 0.0000 0.0000 0.0000 -18.5767 -4.4051 -12.9236 4.3630 12.6284 37.9930 -0.1179 -22.1985 -14.7496 1.7899 -8.4141 -23.9790 0.0000 0.0000 0.0000 19.4079 4.6504 -5.6833 -3.1143 -10.8779 31.8690 -1.0801 -1.8845 -20.3973 -0.0105 -0.6602 1.8141 -1.0578 0.9296 12.7724 0.3431 1.1474 0.6739 0.7491 0.6156 -6.4867 -13.5642 -9.3690 -16.7551 10.9481 -12.4465 29.9019 4.5576 -5.2996 14.7994 0.0000 -0.0000 0.0000 -85.6653 7.9745 17.7996 20.7314 -31.5135 -5.9089 -0.0000 -0.0000 1.5063 17.4582 24.8682 7.5340 -7.1250 0.0000 -0.0000 -12.9951 55.4207 -3.3654 0.0000 -0.0000 0.0000 86.7414 -3.4851 9.7870 -17.2820 27.2280 -4.2156 0.0000 0.0000 6.5501 -15.4439 5.9123 -1.6301 7.1250 -0.0000 -0.0000 8.3438 -23.8566 4.3002
-12.6609 17.5750 -15.9080 -177.7240 87.6183 -179.9780 0.0000 0.0000 0.0000 -19.2908 -3.6916 -12.9804 4.3500 12.6121 37.9334 -0.5172 -24.1260 -13.2428 1.3978 -7.4793 -21.1434 0.0000 0.0000 0.0000 19.6363 4.3472 -5.8176 -3.1653 -10.9580 32.1384 -1.1082 -1.5301 -20.4960 -0.0088 -0.6045 1.6612 -0.8439 0.9293 12.6971 0.3592 1.1810 0.7411 0.6408 0.6260 -6.3698 -13.5791 -9.2535 -16.6560 11.1064 -12.3227 29.7793 4.6518 -5.2328 14.7161 -0.0000 -0.0000 0.0000 -85.8396 7.8919 17.5178 20.6147 -31.3758 -5.8480 -0.0000 -0.0000 2.0723 17.2043 24.5455 7.3295 -7.1250 0.0000 -0.0000 -13.0973 55.0504 -3.2739 -0.0000 -0.0000 0.0000 86.6855 -3.4357 9.4089 -17.1692 27.0802 -4.1640 0.0000 0.0000 6.3577 -15.5084 6.0489 -1.6749 7.1250 -0.0000 -0.0000 8.2902 -23.7145 4.2994
-12.6354 17.5537 -15.8565 -172.7570 87.7567 -175.1870 0.0000 0.0000 0.0000 -19.8669 -3.1728 -12.8217 4.3381 12.5972 37.8789 -0.8281 -25.3975 -12.0040 1.0877 -6.6282 -18.6185 0.0000 0.0000 0.0000 19.9667 4.1521 -5.7371 -3.1937 -11.0021 32.2871 -1.1280 -1.2693 -20.5641 -0.0084 -0.5914 1.6252 -0.5181 0.9754 12.5988 0.4194 1.2951 0.8372 0.5023 0.6739 -6.2093 -13.7347 -9.2438 -16.5433 11.2887 -12.3262 29.7077 4.7558 -5.2330 14.6893 0.0000 0.0000 0.0000 -86.1072 7.7833 17.2142 20.4694 -31.2038 -5.7726 -0.0000 -0.0000 2.7662 17.4294 24.4399 7.4008 -7.1250 0.0000 -0.0000 -12.8172 54.9896 -3.1830 0.0000 0.0000 0.0000 86.5812 -3.5177 8.9191 -17.1742 27.0868 -4.1663 0.0000 0.0000 6.2737 -15.3323 6.4379 -1.7609 7.1250 -0.0000 -0.0000 8.4028 -23.3213 4.4360
-12.6140 17.5480 -15.8042 -171.7480 87.7622 -174.1820 0.0000 0.0000 0.0000 -20.5724 -2.8297 -12.7985 4.3177 12.5715 37.7851 -0.7090 -25.3605 -12.9049 1.6287 -8.0455 -22.8524 0.0000 0.0000 0.0000 20.1356 3.9164 -5.8022 -3.2153 -11.0356 32.4002 -1.1458 -1.1261 -20.6634 -0.0054 -0.4753 1.3061 -0.4015 0.9837 12.4031 0.4723 1.3265 0.8784 0.4902 0.6869 -6.0555 -13.9239 -9.3370 -16.5555 11.3298 -12.4222 29.7629 4.7872 -5.2891 14.7542 -0.0000 -0.0000 0.0000 -86.2131 7.8216 17.3040 20.4480 -31.1784 -5.7615 -0.0000 -0.0000 2.8816 17.2502 24.5304 7.3459 -7.1250 0.0000 -0.0000 -13.0433 55.0444 -3.2581 -0.0000 -0.0000 0.0000 86.4411 -3.6140 8.5914 -17.2422 27.1759 -4.1974 0.0000 0.0000 6.3348 -15.1915 6.5854 -1.7837 7.1250 -0.0000 -0.0000 8.4998 -23.1750 4.5171
-12.5998 17.5474 -15.7510 -173.6740 87.5744 -176.0330 0.0000 0.0000 0.0000 -21.2916 -2.6095 -12.7367 4.2751 12.5178 37.5893 -0.6350 -25.4943 -13.5953 1.9823 -8.8290 -25.2620 0.0000 0.0000 0.0000 20.1898 3.5696 -6.0108 -3.2401 -11.0739 32.5294 -1.1739 -0.8261 -20.7929 -0.0076 -0.5630 1.5472 -0.4102 0.9385 12.2340 0.4689 1.2642 0.8519 0.5050 0.6560 -5.9884 -13.8477 -9.4050 -16.5163 11.2373 -12.5241 29.8252 4.7174 -5.3347 14.7763 -0.0000 -0.0000 0.0000 -86.0031 8.0977 17.9733 20.5745 -31.3283 -5.8271 -0.0000 -0.0000 2.4424 17.0962 24.7518 7.3379 -7.1250 0.0000 -0.0000 -13.3082 55.2336 -3.3877 -0.0000 -0.0000 0.0000 86.3775 -3.7106 8.5358 -17.2294 27.1592 -4.1915 0.0000 0.0000 6.2159 -15.4330 6.3012 -1.7355 7.1250 -0.0000 -0.0000 8.3347 -23.4580 4.3728
